<svg xmlns="http://www.w3.org/2000/svg" viewBox="0 0 142 32" height="32" role="img" aria-label="WordInk"><title>WordInk</title>
  <g fill="none" stroke="#E8ECEF" stroke-width="3.2" stroke-linecap="round" stroke-linejoin="round">
    <path d="M2 4L8.5 28L14 12L19.5 28L26 4"/>
    <ellipse cx="38" cy="20" rx="7.5" ry="8"/>
    <path d="M52 28V12M52 19C52 14 56 12 61 12"/>
    <circle cx="72" cy="20" r="8"/><path d="M80 4V28"/>
    <path d="M92 4V28M87.5 4H96.5M87.5 28H96.5"/>
    <path d="M102 28V12M102 19C102 14 106 12 110 12C115 12 117 15 117 19V28"/>
    <path d="M127 4V28M139 12L127 22M131.5 19L140 28"/>
  </g>
</svg>
